<svg xmlns="http://www.w3.org/2000/svg" data-name="Design Here" viewBox="0 0 192 192"><path d="M156.67,120.78V65a18,18,0,0,0-12.45-17.12,38.13,38.13,0,0,0-30.35-26.05,18,18,0,0,0-35.73,0A38.13,38.13,0,0,0,47.78,47.88,18,18,0,0,0,35.33,65v55.78a12,12,0,0,0-5.33,10V162a12,12,0,0,0,12,12H150a12,12,0,0,0,12-12V130.75A12,12,0,0,0,156.67,120.78Zm-4-55.78v54.06a11.75,11.75,0,0,0-2.67-.31h-4V59.38a37.41,37.41,0,0,0-.6-6.66A14,14,0,0,1,152.67,65ZM96,10a13.95,13.95,0,0,1,13.75,11.42c-.58,0-1.16,0-1.75,0H84c-.59,0-1.17,0-1.75,0A13.89,13.89,0,0,1,96,10ZM50,59.38a34,34,0,0,1,34-34h24a34,34,0,0,1,34,34v59.37H50ZM39.33,65A14,14,0,0,1,46.6,52.72a37.41,37.41,0,0,0-.6,6.66v59.37H42a11.75,11.75,0,0,0-2.67.31ZM158,162a8,8,0,0,1-8,8H42a8,8,0,0,1-8-8V130.75a8,8,0,0,1,8-8H150a8,8,0,0,1,8,8Z"/><path fill="#164690" d="M152.67 65v54.06a11.75 11.75 0 0 0-2.67-.31h-4V59.38a37.41 37.41 0 0 0-.6-6.66A14 14 0 0 1 152.67 65zM46.6 52.72a37.41 37.41 0 0 0-.6 6.66v59.37H42a11.75 11.75 0 0 0-2.67.31V65A14 14 0 0 1 46.6 52.72z"/><path fill="#327eb8" d="M108,25.38H84a34,34,0,0,0-34,34v59.37h92V59.38A34,34,0,0,0,108,25.38Zm18,48.4V96a2,2,0,0,1-2,2H68a2,2,0,0,1-2-2V73.78A14,14,0,0,1,62,64a2,2,0,0,1,2-2h64a2,2,0,0,1,2,2A14,14,0,0,1,126,73.78Z"/><path fill="#164690" d="M150,122.75H42a8,8,0,0,0-8,8V162a8,8,0,0,0,8,8H150a8,8,0,0,0,8-8V130.75A8,8,0,0,0,150,122.75ZM136.62,154H54a8,8,0,0,1,0-16h82.62a8,8,0,0,1,0,16Z"/><path d="M128,62H64a2,2,0,0,0-2,2,14,14,0,0,0,4,9.78V96a2,2,0,0,0,2,2h56a2,2,0,0,0,2-2V73.78A14,14,0,0,0,130,64,2,2,0,0,0,128,62Zm-6,32H70V76.63A13.87,13.87,0,0,0,76,78h40a13.87,13.87,0,0,0,6-1.37Zm-6-20H76a10,10,0,0,1-9.8-8h59.6A10,10,0,0,1,116,74Z"/><path fill="#bf2a26" d="M125.8 66a10 10 0 0 1-9.8 8H76a10 10 0 0 1-9.8-8zM122 76.63V94H70V76.63A13.87 13.87 0 0 0 76 78h40A13.87 13.87 0 0 0 122 76.63z"/><path d="M136.62,138H54a8,8,0,0,0,0,16h82.62a8,8,0,0,0,0-16Zm0,12H54a4,4,0,0,1,0-8h82.62a4,4,0,0,1,0,8Z"/><path fill="#bf2a26" d="M136.62,142H54a4,4,0,0,0,0,8h82.62a4,4,0,0,0,0-8Z"/></svg>