<svg xmlns="http://www.w3.org/2000/svg" enable-background="new 0 0 47.5 47.5" viewBox="0 0 47.5 47.5"><defs><clipPath id="a" clipPathUnits="userSpaceOnUse"><path d="M 0,38 38,38 38,0 0,0 0,38 Z"/></clipPath></defs><g clip-path="url(#a)" transform="matrix(1.25 0 0 -1.25 0 47.5)"><path fill="#292f33" d="m 0,0 c 0,-1.104 -0.896,-2 -2,-2 l -2,0 c -1.104,0 -2,0.896 -2,2 l 0,7 c 0,1.104 0.896,2 2,2 l 2,0 C -0.896,9 0,8.104 0,7 L 0,0 Z" transform="translate(12 3)"/><path fill="#292f33" d="m 0,0 c 0,-1.104 -0.896,-2 -2,-2 l -2,0 c -1.104,0 -2,0.896 -2,2 l 0,7 c 0,1.104 0.896,2 2,2 l 2,0 C -0.896,9 0,8.104 0,7 L 0,0 Z" transform="translate(32 3)"/><path fill="#99aab5" d="m 0,0 c 0,-0.553 -0.448,-1 -1,-1 l -1,0 c -0.552,0 -1,0.447 -1,1 l 0,7 c 0,0.552 0.448,1 1,1 l 1,0 C -0.448,8 0,7.552 0,7 L 0,0 Z" transform="translate(4 20)"/><path fill="#99aab5" d="m 0,0 c 0,-0.553 -0.447,-1 -1,-1 l -1,0 c -0.553,0 -1,0.447 -1,1 l 0,7 c 0,0.552 0.447,1 1,1 l 1,0 C -0.447,8 0,7.552 0,7 L 0,0 Z" transform="translate(37 20)"/><path fill="#99aab5" d="m 0,0 c 0,-0.552 -0.447,-1 -1,-1 l -32,0 c -0.552,0 -1,0.448 -1,1 0,0.552 0.448,1 1,1 L -1,1 C -0.447,1 0,0.552 0,0" transform="translate(36 26)"/><path fill="#99aab5" d="m 0,0 c 0,-0.553 -0.447,-1 -1,-1 l -32,0 c -0.552,0 -1,0.447 -1,1 0,0.553 0.448,1 1,1 L -1,1 C -0.447,1 0,0.553 0,0" transform="translate(36 22)"/><path fill="#ccd6dd" d="m 0,0 c 0,-1.104 -0.896,-2 -2,-2 l -8,0 c -1.104,0 -2,0.896 -2,2 0,1.104 0.896,2 2,2 l 8,0 C -0.896,2 0,1.104 0,0" transform="translate(25 35)"/><path fill="#ccd6dd" d="m 0,0 -20,0 c -2.209,0 -4,-1.791 -4,-4 l 0,-20 0,-2 0,-4 4,0 20,0 4,0 0,4 0,2 0,20 C 4,-1.791 2.209,0 0,0" transform="translate(29 35)"/><path fill="#ffcc4d" d="M 33,5 5,5 5,21 33,21 33,5 Z"/><path fill="#66757f" d="m 0,0 c 0,-0.553 -0.447,-1 -1,-1 l -28,0 c -0.552,0 -1,0.447 -1,1 l 0,1 c 0,0.553 0.448,1 1,1 L -1,2 C -0.447,2 0,1.553 0,1 L 0,0 Z" transform="translate(34 5)"/><path fill="#66757f" d="m 0,0 c 0,-1.657 -1.343,-3 -3,-3 l -22,0 c -1.657,0 -3,1.343 -3,3 l 0,7 c 0,1.657 1.343,3 3,3 l 22,0 C -1.343,10 0,8.657 0,7 L 0,0 Z" transform="translate(33 20)"/><path fill="#88c9f9" d="m 0,0 c 0,-1.104 -0.896,-2 -2,-2 l -20,0 c -1.104,0 -2,0.896 -2,2 l 0,5.001 C -24,6.105 -23.104,7 -22,7 L -2,7 C -0.896,7 0,6.105 0,5.001 L 0,0 Z" transform="translate(31 21)"/><path fill="#ffac33" d="M 33,7 5,7 5,12 33,12 33,7 Z"/><path fill="#fff" d="M13 9l-6 0 0 3 6 0 0-3zM31 9l-6 0 0 3 6 0 0-3z"/><path fill="#dd2e44" d="M7 9L5 9 5 12 7 12 7 9zM33 9l-2 0 0 3 2 0 0-3z"/><path fill="#66757f" d="m 23,9 -8,0 0,3 8,0 0,-3 z"/><path fill="#292f33" d="m 0,0 c 0,-0.829 -0.672,-1.5 -1.5,-1.5 l -5,0 c -0.829,0 -1.5,0.671 -1.5,1.5 0,0.829 0.671,1.5 1.5,1.5 l 5,0 C -0.672,1.5 0,0.829 0,0" transform="translate(23 33.5)"/></g></svg>