<svg xmlns="http://www.w3.org/2000/svg" viewBox="0 0 48 48"><symbol id="New_Symbol_14" viewBox="-6.5 -6.5 13 13"><path fill="#ffd4c3" stroke="#504b46" stroke-linecap="round" stroke-linejoin="round" stroke-miterlimit="10" d="M0-6c2.2 0 4.1 1.5 4.7 3.5C6.3-2.5 6.4 0 5 0v1c0 2.8-2.2 5-5 5s-5-2.2-5-5V0c-1.4 0-1.3-2.5.2-2.5C-4.1-4.5-2.2-6 0-6z"/><circle cx="-1.6" cy="-.1" r=".1" fill="#ffc258"/><path fill="#4f4b45" d="M-1.6.5c-.3 0-.6-.3-.6-.6s.2-.7.6-.7c.3 0 .6.3.6.7s-.3.6-.6.6z"/><circle cx="1.6" cy="-.1" r=".1" fill="#ffc258"/><path fill="#4f4b45" d="M1.6.5C1.3.5 1 .2 1-.1s.3-.6.6-.6.6.3.6.6-.2.6-.6.6z"/><circle cx="-3" cy="-1.5" r=".5" fill="#fabfa5"/><circle cx="3" cy="-1.5" r=".5" fill="#fabfa5"/><path fill="none" stroke="#504b46" stroke-linecap="round" stroke-linejoin="round" stroke-miterlimit="10" d="M-1.2-3c.8-.5 1.7-.5 2.5 0"/></symbol><g id="Icons"><g id="XMLID_1974_"><path id="XMLID_2404_" fill="#656769" d="M36.6 28.4l-4.3 2.8c-5.1 3.2-11.4 3.2-16.5 0l-4.3-2.8c-1-.6-1.6-1.7-1.6-2.9v-6h28.3v6c-.1 1.2-.7 2.3-1.6 2.9z"/><path id="XMLID_2403_" fill="#525252" d="M38.1 19.5H9.9v4.6l10.7 6.2c2.1 1.3 4.8 1.3 6.9 0l10.7-6.2v-4.6z"/><path id="XMLID_2402_" fill="none" stroke="#45413c" stroke-linecap="round" stroke-linejoin="round" stroke-miterlimit="10" d="M36.6 28.4l-4.3 2.8c-5.1 3.2-11.4 3.2-16.5 0l-4.3-2.8c-1-.6-1.6-1.7-1.6-2.9v-6h28.3v6c-.1 1.2-.7 2.3-1.6 2.9z"/><ellipse id="XMLID_2401_" cx="24" cy="44.1" fill="#45413c" opacity=".15" rx="13" ry="1.7"/><path id="XMLID_2400_" fill="#656769" d="M5.7 18l14.8 8.7c2.1 1.3 4.8 1.3 6.9 0L42.3 18c2.8-1.6 2.7-5.7-.2-7.2L27.2 3c-2-1.1-4.4-1.1-6.4 0L5.9 10.9c-2.9 1.5-3 5.5-.2 7.1z"/><path id="XMLID_2399_" fill="#87898c" d="M5.9 15.5l14.9-6c2-.8 4.4-.8 6.4 0l14.9 6a5 5 0 0 1 1.6 1.1c1.2-1.9.6-4.6-1.6-5.8L27.2 3c-2-1.1-4.4-1.1-6.4 0L5.9 10.9c-2.2 1.2-2.7 3.9-1.6 5.8.3-.5.9-.9 1.6-1.2z"/><path id="XMLID_2398_" fill="none" stroke="#45413c" stroke-linecap="round" stroke-linejoin="round" stroke-miterlimit="10" d="M5.7 18l14.8 8.7c2.1 1.3 4.8 1.3 6.9 0L42.3 18c2.8-1.6 2.7-5.7-.2-7.2L27.2 3c-2-1.1-4.4-1.1-6.4 0L5.9 10.8c-2.9 1.5-3 5.6-.2 7.2z"/><path id="XMLID_525_" fill="none" stroke="#45413c" stroke-linecap="round" stroke-linejoin="round" stroke-miterlimit="10" d="M22.3 15l-10 6.5v14.4"/><path id="XMLID_524_" fill="#ffe500" stroke="#45413c" stroke-linecap="round" stroke-linejoin="round" stroke-miterlimit="10" d="M11.7 38l-1.8 5.3c-.2.6 0 1.2.5 1.5.5.3 1.2.7 2 .7s1.5-.3 2-.7c.5-.3.6-1 .5-1.5L13 38h-1.3z"/><circle id="XMLID_523_" cx="12.3" cy="38" r="2.1" fill="#ffe500" stroke="#45413c" stroke-linecap="round" stroke-linejoin="round" stroke-miterlimit="10"/><ellipse id="XMLID_522_" cx="24" cy="13.9" fill="#ffe500" stroke="#45413c" stroke-linecap="round" stroke-linejoin="round" stroke-miterlimit="10" rx="2.7" ry="1.4"/></g></g></svg>