<svg xmlns="http://www.w3.org/2000/svg" enable-background="new 0 0 512 512" viewBox="0 0 512 512"><path fill="#2563eb" fill-rule="evenodd" d="M256.502-0.312C115.319-0.312,0.505,114.531,0.505,255.69c0,141.16,114.814,255.998,255.997,255.998c141.136,0,255.998-114.838,255.998-255.998C512.5,114.531,397.638-0.312,256.502-0.312z" clip-rule="evenodd"/><path fill="#2357cc" fill-rule="evenodd" d="M280.465,510.557c122.053-11.388,219.518-108.835,230.905-230.906L398.904,167.185c-0.713-0.815-1.566-1.52-2.539-2.077l-73.021-42.157c-3.066-1.793-6.887-1.793-10,0c-3.066,1.778-5,5.09-5,8.656v32.161H203.529c-50.662,0-91.89,41.232-91.89,91.922c0,2.932,1.265,5.571,3.278,7.401l42.382,42.382l-40.66,23.474c-3.113,1.792-5,5.09-5,8.66c0,2.909,1.246,5.634,3.383,7.508L280.465,510.557z" clip-rule="evenodd"/><path fill="#fefefe" fill-rule="evenodd" d="M184.661 362.448l-43.02-24.841 43.02-24.84V362.448L184.661 362.448zM391.365 245.69c-5.519 0-10 4.477-10 10 0 39.657-32.265 71.917-71.936 71.917H204.661v-32.156c0-3.571-1.934-6.873-5-8.661-3.113-1.783-6.934-1.783-10 0l-73.021 42.157c-3.113 1.792-5 5.09-5 8.66 0 3.58 1.887 6.883 5 8.661l73.021 42.162c1.557.896 3.255 1.34 5 1.34 1.698 0 3.443-.444 5-1.34 3.066-1.783 5-5.09 5-8.661v-32.161h104.767c50.709 0 91.937-41.227 91.937-91.918C401.365 250.166 396.884 245.69 391.365 245.69zM328.344 148.928l43.02 24.841-43.02 24.84V148.928L328.344 148.928zM121.64 265.69c5.519 0 10-4.481 10-10 0-39.661 32.265-71.922 71.889-71.922h104.814v32.161c0 3.571 1.934 6.868 5 8.661 1.557.887 3.255 1.34 5 1.34 1.745 0 3.443-.453 5-1.34l73.021-42.162c3.113-1.792 5-5.09 5-8.66 0-3.581-1.887-6.878-5-8.661l-73.021-42.157c-3.066-1.793-6.887-1.793-10 0-3.066 1.778-5 5.09-5 8.656v32.161H203.529c-50.662 0-91.89 41.232-91.89 91.922C111.64 261.209 116.121 265.69 121.64 265.69z" clip-rule="evenodd"/></svg>